<?xml version="1.0" encoding="UTF-8"?><svg id="a" xmlns="http://www.w3.org/2000/svg" viewBox="0 0 1000 1000"><defs><style>.b{fill:#231815;}.b,.c{stroke-width:0px;}.c{fill:#fff;}</style></defs><rect class="c" width="1000" height="1000"/><path class="b" d="m134.27,450.24h-16.2v49.76h-5.98v-49.76h-16.13v-5.04h38.31v5.04Z"/><path class="b" d="m171.42,500h-5.98v-23.19c0-6.41-2.3-11.95-9.07-11.95-4.61,0-10.37,3.82-10.37,11.02v24.12h-5.98v-57.6h5.98v24.41h.14c2.59-4.32,7.34-6.98,12.17-6.98s13.11,2.95,13.11,16.27v23.91Z"/><path class="b" d="m185.96,453.84c-2.3,0-3.89-1.8-3.89-4.1s1.66-4.03,3.96-4.03,3.89,1.8,3.89,4.03c0,2.52-1.66,4.1-3.96,4.1Zm3.02,46.16h-5.98v-39.24h5.98v39.24Z"/><path class="b" d="m219.23,466.73c-1.44-.94-4.1-2.3-7.63-2.3-4.32,0-6.62,2.66-6.62,5.83,0,3.38,2.23,4.97,7.27,7.13,6.34,2.59,10.01,5.9,10.01,11.81,0,6.98-5.33,11.59-13.9,11.59-3.89,0-7.63-1.08-10.3-2.66l1.66-4.61c2.09,1.22,5.47,2.66,8.86,2.66,5.26,0,7.85-2.81,7.85-6.34s-2.09-5.69-7.27-7.78c-6.62-2.66-10.01-6.34-10.01-11.09,0-6.12,4.9-11.16,12.82-11.16,3.74,0,6.91,1.08,9,2.38l-1.73,4.54Z"/><path class="b" d="m251.12,453.84c-2.3,0-3.89-1.8-3.89-4.1s1.66-4.03,3.96-4.03,3.89,1.8,3.89,4.03c0,2.52-1.66,4.1-3.96,4.1Zm3.02,46.16h-5.98v-39.24h5.98v39.24Z"/><path class="b" d="m284.38,466.73c-1.44-.94-4.1-2.3-7.63-2.3-4.32,0-6.62,2.66-6.62,5.83,0,3.38,2.23,4.97,7.27,7.13,6.34,2.59,10.01,5.9,10.01,11.81,0,6.98-5.33,11.59-13.9,11.59-3.89,0-7.63-1.08-10.3-2.66l1.66-4.61c2.09,1.22,5.47,2.66,8.86,2.66,5.26,0,7.85-2.81,7.85-6.34s-2.09-5.69-7.27-7.78c-6.62-2.66-10.01-6.34-10.01-11.09,0-6.12,4.9-11.16,12.82-11.16,3.74,0,6.91,1.08,9,2.38l-1.73,4.54Z"/><path class="b" d="m339.03,490.64c0,3.24.07,6.62.58,9.36h-5.47l-.58-5.04h-.22c-2.02,3.1-6.05,5.9-11.59,5.9-7.49,0-11.45-5.47-11.45-11.16,0-9.43,8.21-14.55,22.75-14.47,0-3.31,0-10.8-8.93-10.8-3.38,0-6.91.94-9.58,2.81l-1.44-4.1c3.17-2.09,7.56-3.31,11.95-3.31,11.09,0,13.97,7.85,13.97,15.63v15.19Zm-5.9-11.02c-7.42,0-16.71,1.08-16.71,9.36,0,5.04,3.17,7.27,6.77,7.27,5.83,0,9.94-4.46,9.94-9.22v-7.42Z"/><path class="b" d="m385.68,466.73c-1.44-.94-4.1-2.3-7.63-2.3-4.32,0-6.62,2.66-6.62,5.83,0,3.38,2.23,4.97,7.27,7.13,6.34,2.59,10.01,5.9,10.01,11.81,0,6.98-5.33,11.59-13.9,11.59-3.89,0-7.63-1.08-10.3-2.66l1.66-4.61c2.09,1.22,5.47,2.66,8.86,2.66,5.26,0,7.85-2.81,7.85-6.34s-2.09-5.69-7.27-7.78c-6.62-2.66-10.01-6.34-10.01-11.09,0-6.12,4.9-11.16,12.82-11.16,3.74,0,6.91,1.08,9,2.38l-1.73,4.54Z"/><path class="b" d="m423.56,490.64c0,3.24.07,6.62.58,9.36h-5.47l-.58-5.04h-.22c-2.02,3.1-6.05,5.9-11.59,5.9-7.49,0-11.45-5.47-11.45-11.16,0-9.43,8.21-14.55,22.75-14.47,0-3.31,0-10.8-8.93-10.8-3.38,0-6.91.94-9.58,2.81l-1.44-4.1c3.17-2.09,7.56-3.31,11.95-3.31,11.09,0,13.97,7.85,13.97,15.63v15.19Zm-5.9-11.02c-7.42,0-16.71,1.08-16.71,9.36,0,5.04,3.17,7.27,6.77,7.27,5.83,0,9.94-4.46,9.94-9.22v-7.42Z"/><path class="b" d="m488.5,500h-5.9v-22.68c0-7.63-2.74-12.53-8.64-12.53-4.82,0-9.22,4.54-9.22,10.51v24.7h-5.9v-24.19c0-6.26-2.66-11.02-8.21-11.02-5.11,0-9.65,5.04-9.65,11.16v24.05h-5.9v-29.16c0-4.03-.14-6.91-.29-10.15h5.26l.36,6.34h.22c2.16-3.82,5.76-7.2,11.95-7.2,5.11,0,9.07,3.17,10.73,7.85h.14c2.59-4.68,6.55-7.85,12.6-7.85,4.82,0,12.46,3.1,12.46,16.56v23.62Z"/><path class="b" d="m505.71,467.38c2.74-4.82,7.27-7.56,13.39-7.56,9.29,0,15.99,7.99,15.99,20.02,0,14.4-8.42,21.03-17.07,21.03-5.18,0-9.5-2.38-11.81-6.26h-.14v21.46h-5.98v-42.7c0-5.11-.14-9.07-.29-12.67h5.4l.36,6.7h.14Zm.36,16.99c0,7.63,5.69,11.67,11.02,11.67,7.71,0,11.95-6.62,11.95-15.99,0-8.14-4.1-15.34-11.74-15.34-6.7,0-11.23,6.48-11.23,12.17v7.49Z"/><path class="b" d="m550.06,500h-5.98v-57.6h5.98v57.6Z"/><path class="b" d="m589.73,498.34c-2.23,1.08-6.34,2.45-12.31,2.45-11.45,0-18.29-8.06-18.29-19.8,0-12.31,6.91-21.17,17.5-21.17,12.1,0,15.19,11.09,15.19,17.93,0,1.37-.07,2.38-.14,3.31h-26.71c.07,10.87,6.26,14.98,13.32,14.98,4.9,0,7.85-1.01,10.3-2.02l1.15,4.32Zm-3.82-21.75c.07-5.33-2.16-12.24-9.87-12.24-7.2,0-10.37,6.84-10.94,12.24h20.81Z"/><path class="b" d="m620.47,453.84c-2.3,0-3.89-1.8-3.89-4.1s1.66-4.03,3.96-4.03,3.89,1.8,3.89,4.03c0,2.52-1.66,4.1-3.96,4.1Zm3.02,46.16h-5.98v-39.24h5.98v39.24Z"/><path class="b" d="m688.8,500h-5.9v-22.68c0-7.63-2.74-12.53-8.64-12.53-4.82,0-9.22,4.54-9.22,10.51v24.7h-5.9v-24.19c0-6.26-2.67-11.02-8.21-11.02-5.11,0-9.65,5.04-9.65,11.16v24.05h-5.9v-29.16c0-4.03-.14-6.91-.29-10.15h5.26l.36,6.34h.22c2.16-3.82,5.76-7.2,11.95-7.2,5.11,0,9.07,3.17,10.73,7.85h.14c2.59-4.68,6.55-7.85,12.6-7.85,4.82,0,12.46,3.1,12.46,16.56v23.62Z"/><path class="b" d="m726.1,490.64c0,3.24.07,6.62.58,9.36h-5.47l-.58-5.04h-.22c-2.02,3.1-6.05,5.9-11.59,5.9-7.49,0-11.45-5.47-11.45-11.16,0-9.43,8.21-14.55,22.75-14.47,0-3.31,0-10.8-8.93-10.8-3.38,0-6.91.94-9.58,2.81l-1.44-4.1c3.17-2.09,7.56-3.31,11.95-3.31,11.09,0,13.97,7.85,13.97,15.63v15.19Zm-5.9-11.02c-7.42,0-16.71,1.08-16.71,9.36,0,5.04,3.17,7.27,6.77,7.27,5.83,0,9.94-4.46,9.94-9.22v-7.42Z"/><path class="b" d="m769.51,460.68c-.22,2.81-.36,5.98-.36,10.8v22.9c0,6.84-.14,22.54-18.72,22.54-4.46,0-9.36-1.08-12.31-3.1l1.58-4.68c2.52,1.51,6.34,2.95,11.02,2.95,7.2,0,12.46-3.82,12.46-14.19v-4.68h-.14c-2.02,3.67-6.19,6.7-12.17,6.7-9.36,0-16.06-8.28-16.06-19.3,0-13.61,8.5-20.81,16.99-20.81,6.7,0,10.22,3.6,11.88,6.77h.14l.29-5.9h5.4Zm-6.41,15.12c0-6.84-4.97-11.16-10.44-11.16-6.91,0-11.74,6.12-11.74,15.63,0,8.35,4.03,14.91,11.67,14.91,4.46,0,10.51-3.38,10.51-11.52v-7.85Z"/><path class="b" d="m808.75,498.34c-2.23,1.08-6.34,2.45-12.31,2.45-11.45,0-18.29-8.06-18.29-19.8,0-12.31,6.91-21.17,17.5-21.17,12.1,0,15.19,11.09,15.19,17.93,0,1.37-.07,2.38-.14,3.31h-26.71c.07,10.87,6.26,14.98,13.32,14.98,4.9,0,7.85-1.01,10.3-2.02l1.15,4.32Zm-3.82-21.75c.07-5.33-2.16-12.24-9.87-12.24-7.2,0-10.37,6.84-10.94,12.24h20.81Z"/><path class="b" d="m843.16,500h-5.98v-34.56h-5.4v-4.68h5.4v-2.38c0-9.86,5.33-16.85,16.13-16.85,3.17,0,7.42,1.08,9.36,2.52l-1.8,4.61c-1.87-1.3-4.97-2.23-7.99-2.23-9.72,0-9.72,8.71-9.72,14.33h21.96v39.24h-5.98v-34.56h-15.99v34.56Z"/><path class="b" d="m882.91,500h-5.98v-57.6h5.98v57.6Z"/><path class="b" d="m922.58,498.34c-2.23,1.08-6.34,2.45-12.31,2.45-11.45,0-18.29-8.06-18.29-19.8,0-12.31,6.91-21.17,17.5-21.17,12.1,0,15.19,11.09,15.19,17.93,0,1.37-.07,2.38-.14,3.31h-26.71c.07,10.87,6.26,14.98,13.32,14.98,4.9,0,7.85-1.01,10.3-2.02l1.15,4.32Zm-3.82-21.75c.07-5.33-2.16-12.24-9.87-12.24-7.2,0-10.37,6.84-10.94,12.24h20.81Z"/><path class="b" d="m931.93,496.33c0-2.74,1.8-4.68,4.32-4.68s4.25,1.94,4.25,4.68c0,2.59-1.66,4.54-4.32,4.54s-4.25-2.16-4.25-4.54Z"/><path class="b" d="m779.32,915.58c-1.44-.94-4.1-2.3-7.63-2.3-4.32,0-6.62,2.66-6.62,5.83,0,3.38,2.23,4.97,7.27,7.13,6.34,2.59,10.01,5.91,10.01,11.81,0,6.98-5.33,11.59-13.9,11.59-3.89,0-7.63-1.08-10.3-2.66l1.66-4.61c2.09,1.22,5.47,2.66,8.86,2.66,5.26,0,7.85-2.81,7.85-6.34s-2.09-5.69-7.27-7.78c-6.62-2.66-10.01-6.34-10.01-11.09,0-6.12,4.9-11.16,12.82-11.16,3.74,0,6.91,1.08,9,2.38l-1.73,4.54Z"/><path class="b" d="m821.66,909.6l-14.91,39.24h-5.62l-14.47-39.32h6.41l7.85,22.83c1.22,3.53,2.3,6.84,3.17,10.08h.22c.86-3.24,2.02-6.55,3.24-10.08l7.78-22.75h6.34Z"/><path class="b" d="m860.32,909.53c-.22,2.81-.36,5.98-.36,10.8v22.9c0,6.84-.14,22.54-18.72,22.54-4.46,0-9.36-1.08-12.31-3.1l1.58-4.68c2.52,1.51,6.34,2.95,11.02,2.95,7.2,0,12.46-3.82,12.46-14.18v-4.68h-.14c-2.02,3.67-6.19,6.7-12.17,6.7-9.36,0-16.06-8.28-16.06-19.3,0-13.61,8.5-20.81,16.99-20.81,6.7,0,10.22,3.6,11.88,6.77h.14l.29-5.9h5.4Zm-6.41,15.12c0-6.84-4.97-11.16-10.44-11.16-6.91,0-11.74,6.12-11.74,15.63,0,8.35,4.03,14.91,11.67,14.91,4.46,0,10.51-3.38,10.51-11.52v-7.85Z"/></svg>